{"title":"Modern Family S05E03 HDTV 480p x264 AAC [GWC].mp4","uid":8991540,"size":87570843,"categoryP":"video","categoryS":"tv_shows","magnet":"?xt=urn:btih:06fd6d3f9cd6071ef74ee59ba5bacf8c80d14201&amp;dn=Modern+Family+S05E03+HDTV+480p+x264+AAC+%5BGWC%5D.mp4&amp;tr=udp%3A%2F%2Ftracker.openbittorrent.com%3A80&amp;tr=udp%3A%2F%2Fopen.demonii.com%3A1337&amp;tr=udp%3A%2F%2Ftracker.coppersurfer.tk%3A6969&amp;tr=udp%3A%2F%2Fexodus.desync.com%3A6969","seeders":2,"leechers":0,"uploader":"canc232","files":1,"time":1380790837,"description":"Modern Family S05E03 HDTV 480p x264 AAC [GWC].mp4\n\n\nSCREENS :\n &lt;a href=&quot;\nhttp://s20.postimg.org/u5dvnv56l/Modern_Family_S05_E03_HDTV_480p_x264_AAC_GWC_12.jpg&quot; rel=&quot;nofollow&quot; target=&quot;_NEW&quot;&gt;\nhttp://s20.postimg.org/u5dvnv56l/Modern_Family_S05_E03_HDTV_480p_x264_AAC_GWC_12.jpg&lt;/a&gt;\n &lt;a href=&quot;\nhttp://s20.postimg.org/9wlwoeghp/Modern_Family_S05_E03_HDTV_480p_x264_AAC_GWC_12.jpg&quot; rel=&quot;nofollow&quot; target=&quot;_NEW&quot;&gt;\nhttp://s20.postimg.org/9wlwoeghp/Modern_Family_S05_E03_HDTV_480p_x264_AAC_GWC_12.jpg&lt;/a&gt;\n &lt;a href=&quot;\nhttp://s20.postimg.org/bzwbw2gal/Modern_Family_S05_E03_HDTV_480p_x264_AAC_GWC_12.jpg&quot; rel=&quot;nofollow&quot; target=&quot;_NEW&quot;&gt;\nhttp://s20.postimg.org/bzwbw2gal/Modern_Family_S05_E03_HDTV_480p_x264_AAC_GWC_12.jpg&lt;/a&gt;\n\n\n\nMEDIA INFO:\n\nGeneral \nFormat : MPEG-4 \nFormat profile : Base Media \nFile size : 83.5 MiB \nDuration : 20mn 59s \nOverall bit rate mode : Variable \nOverall bit rate : 556 Kbps \n\nVideo \nFormat : AVC \nFormat profile : &lt;a class=&quot;__cf_email__&quot; href=&quot;/cdn-cgi/l/email-protection&quot; data-cfemail=&quot;642c0d030c2428574a54&quot;&gt;[email&amp;#160;protected]&lt;/a&gt;&lt;script cf-hash='f9e31' type=&quot;text/javascript&quot;&gt;\n/* &lt;![CDATA[ */!function(){try{var t=&quot;currentScript&quot;in document?document.currentScript:function(){for(var t=document.getElementsByTagName(&quot;script&quot;),e=t.length;e--;)if(t[e].getAttribute(&quot;cf-hash&quot;))return t[e]}();if(t&amp;&amp;t.previousSibling){var e,r,n,i,c=t.previousSibling,a=c.getAttribute(&quot;data-cfemail&quot;);if(a){for(e=&quot;&quot;,r=parseInt(a.substr(0,2),16),n=2;a.length-n;n+=2)i=parseInt(a.substr(n,2),16)^r,e+=String.fromCharCode(i);e=document.createTextNode(e),c.parentNode.replaceChild(e,c)}}}catch(u){}}();/* ]]&gt; */&lt;/script&gt; \nFormat settings, CABAC : Yes \nFormat settings, ReFrames : 4 frames \nDuration : 20mn 59s \nBit rate : 497 Kbps \nMaximum bit rate : 1 708 Kbps \nWidth : 720 pixels \nHeight : 404 pixels \nDisplay aspect ratio : 16:9 \nFrame rate mode : Variable \nFrame rate : 23.976 fps \nStream size : 74.6 MiB (89%) \nTitle : Modern Family S05E03 HDTV 480p x264 AAC [GWC] \n\nAudio \nFormat : AAC \nFormat profile : HE-AAC / LC \nDuration : 20mn 59s \nChannel(s) : 2 channels \nChannel positions : Front: L R \nSampling rate : 48.0 KHz / 24.0 KHz  \nStream size : 8.41 MiB\nLanguage : English","torrent":{"xt":"urn:btih:06fd6d3f9cd6071ef74ee59ba5bacf8c80d14201","amp;dn":"Modern+Family+S05E03+HDTV+480p+x264+AAC+%5BGWC%5D.mp4","amp;tr":["udp%3A%2F%2Ftracker.openbittorrent.com%3A80","udp%3A%2F%2Fopen.demonii.com%3A1337","udp%3A%2F%2Ftracker.coppersurfer.tk%3A6969","udp%3A%2F%2Fexodus.desync.com%3A6969"],"infoHash":"06fd6d3f9cd6071ef74ee59ba5bacf8c80d14201","infoHashBuffer":{"type":"Buffer","data":[6,253,109,63,156,214,7,30,247,78,229,155,165,186,207,140,128,209,66,1]},"announce":[],"urlList":[]}}